<svg xmlns="http://www.w3.org/2000/svg" xmlns:xlink="http://www.w3.org/1999/xlink" version="1.1" width="256" height="256" viewBox="0 0 256 256" xml:space="preserve">
<desc>Created with Fabric.js 1.7.22</desc>
<defs>
</defs>
<g transform="translate(128 128) scale(0.72 0.72)" style="">
	<g style="stroke: none; stroke-width: 0; stroke-dasharray: none; stroke-linecap: butt; stroke-linejoin: miter; stroke-miterlimit: 10; fill: none; fill-rule: nonzero; opacity: 1;" transform="translate(-175.05 -175.05000000000004) scale(3.89 3.89)" >
	<path d="M 45 81.426 c -0.811 0 -1.605 -0.329 -2.184 -0.942 c -5.741 -6.091 -13.573 -9.273 -23.943 -9.73 c -1.604 -0.07 -2.868 -1.392 -2.868 -2.997 V 11.574 c 0 -0.818 0.334 -1.602 0.926 -2.167 s 1.381 -0.865 2.207 -0.83 c 11.841 0.522 21.277 4.428 28.046 11.61 C 47.708 20.743 48 21.479 48 22.244 v 56.182 c 0 1.229 -0.75 2.335 -1.894 2.788 C 45.748 81.356 45.373 81.426 45 81.426 z" style="stroke: none; stroke-width: 1; stroke-dasharray: none; stroke-linecap: butt; stroke-linejoin: miter; stroke-miterlimit: 10; fill: rgb(255,255,255); fill-rule: nonzero; opacity: 1;" transform=" matrix(1 0 0 1 0 0) " stroke-linecap="round" />
	<path d="M 18.675 75.249 c -4.021 -0.177 -7.17 -3.468 -7.17 -7.493 V 19.244 H 3 c -1.657 0 -3 1.343 -3 3 v 56.182 c 0 1.657 1.343 3 3 3 h 34.227 C 32.562 77.623 26.462 75.592 18.675 75.249 z" style="stroke: none; stroke-width: 1; stroke-dasharray: none; stroke-linecap: butt; stroke-linejoin: miter; stroke-miterlimit: 10; fill: rgb(255,255,255); fill-rule: nonzero; opacity: 1;" transform=" matrix(1 0 0 1 0 0) " stroke-linecap="round" />
	<path d="M 87 19.244 H 51.868 c 0.41 0.937 0.632 1.953 0.632 3 v 56.182 c 0 1.061 -0.233 2.073 -0.636 3 H 87 c 1.657 0 3 -1.343 3 -3 V 22.244 C 90 20.587 88.657 19.244 87 19.244 z M 82.393 68.589 H 60.607 c -1.104 0 -2 -0.896 -2 -2 s 0.896 -2 2 -2 h 21.785 c 1.104 0 2 0.896 2 2 S 83.497 68.589 82.393 68.589 z M 82.393 57.589 H 60.607 c -1.104 0 -2 -0.896 -2 -2 s 0.896 -2 2 -2 h 21.785 c 1.104 0 2 0.896 2 2 S 83.497 57.589 82.393 57.589 z M 82.393 46.59 H 60.607 c -1.104 0 -2 -0.896 -2 -2 s 0.896 -2 2 -2 h 21.785 c 1.104 0 2 0.896 2 2 S 83.497 46.59 82.393 46.59 z M 82.393 35.589 H 60.607 c -1.104 0 -2 -0.896 -2 -2 s 0.896 -2 2 -2 h 21.785 c 1.104 0 2 0.896 2 2 S 83.497 35.589 82.393 35.589 z" style="stroke: none; stroke-width: 1; stroke-dasharray: none; stroke-linecap: butt; stroke-linejoin: miter; stroke-miterlimit: 10; fill: rgb(255,255,255); fill-rule: nonzero; opacity: 1;" transform=" matrix(1 0 0 1 0 0) " stroke-linecap="round" />
</g>
</g>
</svg>